<svg width="20" height="20" viewBox="0 0 20 20" fill="none" xmlns="http://www.w3.org/2000/svg">
<path fill-rule="evenodd" clip-rule="evenodd" d="M10 19C14.9706 19 19 14.9706 19 10C19 5.02944 14.9706 1 10 1C5.02944 1 1 5.02944 1 10C1 14.9706 5.02944 19 10 19ZM10 20C15.5228 20 20 15.5228 20 10C20 4.47715 15.5228 0 10 0C4.47715 0 0 4.47715 0 10C0 15.5228 4.47715 20 10 20Z" fill="black"/>
<path d="M9.45599 5.012C9.78266 5.04 10.0673 5.12867 10.31 5.278C10.5527 5.418 10.674 5.63267 10.674 5.922C10.674 6.13667 10.5713 6.30934 10.366 6.44C10.17 6.56134 9.93199 6.622 9.65199 6.622C9.38132 6.622 9.19465 6.552 9.09199 6.412C8.98932 6.272 8.93799 6.12734 8.93799 5.978C8.93799 5.698 8.96599 5.46467 9.02199 5.278C9.08732 5.09134 9.23199 5.00267 9.45599 5.012ZM10.576 11.214V11.62C10.576 11.984 10.5853 12.3293 10.604 12.656C10.632 12.9733 10.6647 13.2953 10.702 13.622C10.6927 13.7153 10.6227 13.8133 10.492 13.916C10.3613 14.0093 10.2447 14.056 10.142 14.056C9.96466 14.056 9.78265 14.0233 9.59599 13.958C9.41865 13.8833 9.31132 13.7947 9.27399 13.692C9.21799 13.3933 9.18999 13.1273 9.18999 12.894C9.18999 12.1287 9.16666 11.27 9.11999 10.318C9.08266 9.478 9.06399 8.89 9.06399 8.554C9.06399 8.386 9.14799 8.24134 9.31599 8.12C9.48399 7.99867 9.66132 7.938 9.84799 7.938C10.1187 7.938 10.3053 7.99867 10.408 8.12C10.52 8.24134 10.576 8.43267 10.576 8.694V11.214Z" fill="black"/>
</svg>
