<svg xmlns="http://www.w3.org/2000/svg" xmlns:xlink="http://www.w3.org/1999/xlink" width="40" zoomAndPan="magnify" viewBox="0 0 30 30.000001" height="40" preserveAspectRatio="xMidYMid meet" version="1.0"><defs><clipPath id="2e0fbfa026"><path d="M 0.484375 12 L 4 12 L 4 17 L 0.484375 17 Z M 0.484375 12 " clip-rule="nonzero"/></clipPath><clipPath id="d005ad437c"><path d="M 13 25 L 17 25 L 17 29.03125 L 13 29.03125 Z M 13 25 " clip-rule="nonzero"/></clipPath><clipPath id="aea8f3a7ca"><path d="M 26 12 L 29.515625 12 L 29.515625 17 L 26 17 Z M 26 12 " clip-rule="nonzero"/></clipPath></defs><path fill="#f4bc33" d="M 24.882812 14.515625 C 24.882812 15.164062 24.820312 15.808594 24.695312 16.445312 C 24.566406 17.082031 24.378906 17.699219 24.132812 18.300781 C 23.882812 18.898438 23.578125 19.46875 23.21875 20.007812 C 22.859375 20.546875 22.449219 21.046875 21.988281 21.503906 C 21.53125 21.964844 21.03125 22.375 20.492188 22.734375 C 19.953125 23.09375 19.382812 23.398438 18.78125 23.648438 C 18.183594 23.894531 17.566406 24.082031 16.929688 24.210938 C 16.292969 24.335938 15.648438 24.398438 15 24.398438 C 14.351562 24.398438 13.710938 24.335938 13.074219 24.210938 C 12.4375 24.082031 11.816406 23.894531 11.21875 23.648438 C 10.617188 23.398438 10.050781 23.09375 9.511719 22.734375 C 8.96875 22.375 8.472656 21.964844 8.011719 21.503906 C 7.554688 21.046875 7.144531 20.546875 6.78125 20.007812 C 6.421875 19.46875 6.117188 18.898438 5.871094 18.300781 C 5.621094 17.699219 5.433594 17.082031 5.308594 16.445312 C 5.179688 15.808594 5.117188 15.164062 5.117188 14.515625 C 5.117188 13.867188 5.179688 13.226562 5.308594 12.589844 C 5.433594 11.953125 5.621094 11.335938 5.871094 10.734375 C 6.117188 10.136719 6.421875 9.566406 6.78125 9.027344 C 7.144531 8.488281 7.554688 7.988281 8.011719 7.527344 C 8.472656 7.070312 8.96875 6.660156 9.511719 6.300781 C 10.050781 5.9375 10.617188 5.632812 11.21875 5.386719 C 11.816406 5.136719 12.4375 4.949219 13.074219 4.824219 C 13.710938 4.695312 14.351562 4.632812 15 4.632812 C 15.648438 4.632812 16.292969 4.695312 16.929688 4.824219 C 17.566406 4.949219 18.183594 5.136719 18.78125 5.386719 C 19.382812 5.632812 19.953125 5.9375 20.492188 6.300781 C 21.03125 6.660156 21.53125 7.070312 21.988281 7.527344 C 22.449219 7.988281 22.859375 8.488281 23.21875 9.027344 C 23.578125 9.566406 23.882812 10.136719 24.132812 10.734375 C 24.378906 11.335938 24.566406 11.953125 24.695312 12.589844 C 24.820312 13.226562 24.882812 13.867188 24.882812 14.515625 Z M 24.882812 14.515625 " fill-opacity="1" fill-rule="nonzero"/><path fill="#f4bc33" d="M 13.050781 3.378906 L 15 0 L 16.953125 3.378906 Z M 13.050781 3.378906 " fill-opacity="1" fill-rule="nonzero"/><path fill="#f4bc33" d="M 7.742188 5.847656 L 7.742188 1.945312 L 11.121094 3.898438 Z M 7.742188 5.847656 " fill-opacity="1" fill-rule="nonzero"/><path fill="#f4bc33" d="M 4.378906 10.636719 L 2.429688 7.257812 L 6.332031 7.257812 Z M 4.378906 10.636719 " fill-opacity="1" fill-rule="nonzero"/><g clip-path="url(#2e0fbfa026)"><path fill="#f4bc33" d="M 3.863281 16.46875 L 0.484375 14.515625 L 3.863281 12.566406 Z M 3.863281 16.46875 " fill-opacity="1" fill-rule="nonzero"/></g><path fill="#f4bc33" d="M 6.332031 21.773438 L 2.429688 21.777344 L 4.378906 18.394531 Z M 6.332031 21.773438 " fill-opacity="1" fill-rule="nonzero"/><path fill="#f4bc33" d="M 11.121094 25.136719 L 7.742188 27.089844 L 7.742188 23.1875 Z M 11.121094 25.136719 " fill-opacity="1" fill-rule="nonzero"/><g clip-path="url(#d005ad437c)"><path fill="#f4bc33" d="M 16.953125 25.652344 L 15 29.035156 L 13.050781 25.652344 Z M 16.953125 25.652344 " fill-opacity="1" fill-rule="nonzero"/></g><path fill="#f4bc33" d="M 22.257812 23.1875 L 22.257812 27.089844 L 18.878906 25.136719 Z M 22.257812 23.1875 " fill-opacity="1" fill-rule="nonzero"/><path fill="#f4bc33" d="M 25.621094 18.394531 L 27.574219 21.777344 L 23.671875 21.773438 Z M 25.621094 18.394531 " fill-opacity="1" fill-rule="nonzero"/><g clip-path="url(#aea8f3a7ca)"><path fill="#f4bc33" d="M 26.136719 12.566406 L 29.519531 14.515625 L 26.136719 16.46875 Z M 26.136719 12.566406 " fill-opacity="1" fill-rule="nonzero"/></g><path fill="#f4bc33" d="M 23.671875 7.257812 L 27.574219 7.257812 L 25.621094 10.636719 Z M 23.671875 7.257812 " fill-opacity="1" fill-rule="nonzero"/><path fill="#f4bc33" d="M 18.878906 3.898438 L 22.257812 1.945312 L 22.257812 5.847656 Z M 18.878906 3.898438 " fill-opacity="1" fill-rule="nonzero"/></svg>