<svg xmlns="http://www.w3.org/2000/svg" xmlns:xlink="http://www.w3.org/1999/xlink" width="100" zoomAndPan="magnify" viewBox="0 0 75 74.999997" height="100" preserveAspectRatio="xMidYMid meet" version="1.0"><defs><g/><clipPath id="3938ae114b"><path d="M 59 6 L 73 6 L 73 23 L 59 23 Z M 59 6 " clip-rule="nonzero"/></clipPath><clipPath id="670a201c48"><path d="M 55.753906 21.613281 L 58.691406 3.855469 L 76.449219 6.792969 L 73.511719 24.550781 Z M 55.753906 21.613281 " clip-rule="nonzero"/></clipPath><clipPath id="07ca16f56c"><path d="M 55.753906 21.613281 L 58.691406 3.855469 L 76.449219 6.792969 L 73.511719 24.550781 Z M 55.753906 21.613281 " clip-rule="nonzero"/></clipPath><clipPath id="3ec3fd59fb"><path d="M 55.753906 21.613281 L 58.691406 3.855469 L 76.449219 6.792969 L 73.511719 24.550781 Z M 55.753906 21.613281 " clip-rule="nonzero"/></clipPath><clipPath id="f6f59769d0"><path d="M 58 4 L 63 4 L 63 8 L 58 8 Z M 58 4 " clip-rule="nonzero"/></clipPath><clipPath id="7e15b84565"><path d="M 55.753906 21.613281 L 58.691406 3.855469 L 76.449219 6.792969 L 73.511719 24.550781 Z M 55.753906 21.613281 " clip-rule="nonzero"/></clipPath><clipPath id="f5462b84de"><path d="M 55.753906 21.613281 L 58.691406 3.855469 L 76.449219 6.792969 L 73.511719 24.550781 Z M 55.753906 21.613281 " clip-rule="nonzero"/></clipPath><clipPath id="68d71babcc"><path d="M 55.753906 21.613281 L 58.691406 3.855469 L 76.449219 6.792969 L 73.511719 24.550781 Z M 55.753906 21.613281 " clip-rule="nonzero"/></clipPath><clipPath id="d40b0f713b"><path d="M 70 20 L 74 20 L 74 25 L 70 25 Z M 70 20 " clip-rule="nonzero"/></clipPath><clipPath id="1e7ed95975"><path d="M 55.753906 21.613281 L 58.691406 3.855469 L 76.449219 6.792969 L 73.511719 24.550781 Z M 55.753906 21.613281 " clip-rule="nonzero"/></clipPath><clipPath id="6e9d6cab11"><path d="M 55.753906 21.613281 L 58.691406 3.855469 L 76.449219 6.792969 L 73.511719 24.550781 Z M 55.753906 21.613281 " clip-rule="nonzero"/></clipPath><clipPath id="d31749669c"><path d="M 55.753906 21.613281 L 58.691406 3.855469 L 76.449219 6.792969 L 73.511719 24.550781 Z M 55.753906 21.613281 " clip-rule="nonzero"/></clipPath><clipPath id="de3f692cdd"><path d="M 29 8.15625 L 68.980469 8.15625 L 68.980469 43 L 29 43 Z M 29 8.15625 " clip-rule="nonzero"/></clipPath><clipPath id="3243ba7c39"><path d="M 2.464844 21 L 49 21 L 49 61.40625 L 2.464844 61.40625 Z M 2.464844 21 " clip-rule="nonzero"/></clipPath></defs><g clip-path="url(#3938ae114b)"><g clip-path="url(#670a201c48)"><g clip-path="url(#07ca16f56c)"><g clip-path="url(#3ec3fd59fb)"><path fill="#000000" d="M 59.828125 8.121094 L 69.835938 22.101562 L 72.375 20.28125 L 62.367188 6.300781 Z M 64.222656 11.195312 L 68.339844 16.945312 C 68.425781 17.066406 68.410156 17.171875 68.289062 17.257812 C 68.167969 17.34375 68.066406 17.328125 67.980469 17.207031 L 63.863281 11.453125 C 63.777344 11.332031 63.792969 11.230469 63.914062 11.144531 C 64.035156 11.054688 64.136719 11.074219 64.222656 11.195312 Z M 64.222656 11.195312 " fill-opacity="1" fill-rule="nonzero"/></g></g></g></g><g clip-path="url(#f6f59769d0)"><g clip-path="url(#7e15b84565)"><g clip-path="url(#f5462b84de)"><g clip-path="url(#68d71babcc)"><path fill="#000000" d="M 61.136719 4.578125 L 62.109375 5.9375 L 59.566406 7.757812 L 58.59375 6.398438 C 58.464844 6.214844 58.417969 6.011719 58.453125 5.789062 C 58.492188 5.566406 58.601562 5.390625 58.785156 5.257812 L 59.996094 4.390625 C 60.179688 4.261719 60.382812 4.214844 60.605469 4.25 C 60.828125 4.285156 61.003906 4.398438 61.136719 4.578125 Z M 61.136719 4.578125 " fill-opacity="1" fill-rule="nonzero"/></g></g></g></g><g clip-path="url(#d40b0f713b)"><g clip-path="url(#1e7ed95975)"><g clip-path="url(#6e9d6cab11)"><g clip-path="url(#d31749669c)"><path fill="#000000" d="M 72.550781 20.703125 L 73.511719 24.550781 L 70.179688 22.402344 Z M 72.550781 20.703125 " fill-opacity="1" fill-rule="nonzero"/></g></g></g></g><g clip-path="url(#de3f692cdd)"><path fill="#000000" d="M 33.535156 21.1875 C 33.535156 21.1875 39.722656 14.746094 48.597656 23.484375 C 55.417969 30.203125 56.214844 25.328125 56.175781 22.488281 C 56.144531 20.40625 56.5 18.324219 57.351562 16.425781 C 58.792969 13.203125 61.769531 9.234375 67.808594 8.296875 C 68.363281 8.214844 68.886719 8.582031 68.984375 9.136719 L 69.132812 9.929688 C 69.226562 10.449219 68.917969 10.960938 68.410156 11.105469 C 66.914062 11.53125 63.953125 12.785156 62.558594 16.253906 C 61.929688 17.816406 61.785156 19.539062 62.082031 21.199219 C 63.015625 26.488281 62.074219 39.085938 46.117188 35.082031 C 46.253906 37.257812 45.765625 40.460938 42.390625 42.703125 C 42.390625 42.703125 35.996094 40.546875 32.765625 36.609375 C 25.808594 28.136719 33.535156 21.1875 33.535156 21.1875 " fill-opacity="1" fill-rule="nonzero"/></g><path fill="#000000" d="M 51.859375 39.539062 C 54.925781 39.539062 57.1875 38.675781 57.316406 38.625 C 57.886719 38.40625 58.167969 37.765625 57.945312 37.199219 C 57.722656 36.632812 57.082031 36.351562 56.515625 36.570312 C 56.46875 36.589844 52.699219 38.007812 48.582031 36.925781 C 47.992188 36.769531 47.390625 37.117188 47.230469 37.710938 C 47.074219 38.296875 47.429688 38.898438 48.019531 39.054688 C 49.367188 39.410156 50.675781 39.539062 51.859375 39.539062 " fill-opacity="1" fill-rule="nonzero"/><g clip-path="url(#3243ba7c39)"><path fill="#000000" d="M 2.742188 60.203125 L 3.476562 58.613281 C 3.535156 58.484375 3.574219 58.339844 3.585938 58.199219 L 5.609375 38.367188 C 7.996094 22.882812 23.664062 21.734375 30.015625 21.921875 C 27.507812 25.605469 25.855469 31.675781 31.054688 38.007812 C 34.644531 42.382812 41.398438 44.699219 41.6875 44.792969 L 42.714844 45.140625 L 43.527344 44.601562 C 44.820312 47.011719 46.824219 51.613281 47.382812 57.722656 C 47.414062 58.0625 47.566406 58.378906 47.8125 58.617188 C 48.113281 58.914062 48.519531 59.394531 48.738281 60.019531 C 48.898438 60.472656 48.574219 60.949219 48.09375 60.949219 L 43.609375 60.949219 C 43.320312 60.949219 43.0625 60.773438 42.964844 60.503906 C 42.425781 59.035156 40.542969 54.28125 37.765625 51.152344 L 35.238281 57.925781 C 35.101562 58.332031 35.109375 58.777344 35.285156 59.160156 C 35.457031 59.53125 35.566406 59.914062 35.628906 60.226562 C 35.710938 60.597656 35.421875 60.949219 35.039062 60.949219 L 30.484375 60.949219 C 30.117188 60.949219 29.839844 60.625 29.886719 60.265625 L 31.226562 50.492188 C 26.765625 51.953125 23.125 52.300781 20.355469 52.183594 L 19.035156 57.851562 C 18.9375 58.269531 19.027344 58.722656 19.304688 59.050781 C 19.828125 59.675781 20.019531 60.296875 20.085938 60.746094 C 20.136719 61.097656 19.859375 61.40625 19.503906 61.40625 L 14.765625 61.40625 C 14.371094 61.40625 14.089844 61.027344 14.203125 60.652344 L 14.414062 59.964844 C 14.542969 59.546875 14.535156 59.101562 14.40625 58.683594 C 13.890625 57.054688 12.886719 54.835938 12.21875 53.414062 L 9.164062 58.0625 C 8.980469 58.339844 8.980469 58.691406 9.140625 58.980469 C 9.429688 59.484375 9.558594 60.019531 9.613281 60.460938 C 9.679688 60.964844 9.273438 61.40625 8.765625 61.40625 L 3.519531 61.40625 C 2.894531 61.40625 2.484375 60.765625 2.742188 60.203125 " fill-opacity="1" fill-rule="nonzero"/></g><g fill="#000000" fill-opacity="1"><g transform="translate(2.145444, 68.438929)"><g><path d="M 0.207031 -0.046875 C 0.207031 -0.015625 0.230469 0.0078125 0.253906 0.0078125 C 0.253906 0.0078125 0.566406 0.0546875 1.074219 0.0546875 C 1.460938 0.0546875 1.871094 0.0234375 1.871094 0.0234375 C 1.925781 0.0234375 1.972656 -0.0234375 1.972656 -0.078125 L 1.972656 -1.105469 C 1.972656 -1.152344 1.941406 -1.183594 1.902344 -1.183594 C 1.902344 -1.183594 1.816406 -1.175781 1.679688 -1.175781 L 1.679688 -1.878906 L 1.902344 -1.871094 C 2.375 -1.871094 2.839844 -1.886719 3.148438 -1.925781 C 3.558594 -2.035156 3.929688 -2.289062 4.253906 -2.605469 C 4.253906 -2.644531 4.261719 -2.683594 4.261719 -2.722656 C 4.347656 -3.582031 4.324219 -4.609375 4.253906 -5.265625 C 3.921875 -5.589844 3.449219 -5.925781 3.148438 -6.09375 C 2.855469 -6.140625 2.265625 -6.148438 1.6875 -6.148438 L 0.230469 -6.09375 C 0.1875 -6.09375 0.15625 -6.0625 0.15625 -6.023438 L 0.15625 -5.003906 C 0.15625 -4.964844 0.1875 -4.941406 0.230469 -4.941406 L 0.480469 -4.949219 C 0.480469 -4.71875 0.480469 -3.90625 0.488281 -3.179688 C 0.480469 -3.09375 0.410156 -3.046875 0.410156 -3.046875 C 0.410156 -3.046875 0.488281 -2.992188 0.488281 -2.90625 C 0.488281 -2.5 0.488281 -2.15625 0.496094 -2.003906 L 0.496094 -1.183594 L 0.253906 -1.183594 C 0.230469 -1.183594 0.207031 -1.160156 0.207031 -1.128906 Z M 3.0625 -3.488281 C 2.976562 -3.339844 2.777344 -3.21875 2.535156 -3.109375 C 2.328125 -3.078125 1.824219 -3.0625 1.65625 -3.125 C 1.65625 -3.140625 1.703125 -3.164062 1.695312 -3.195312 C 1.679688 -3.589844 1.679688 -4.5 1.695312 -4.832031 C 1.703125 -4.855469 1.664062 -4.863281 1.664062 -4.894531 C 1.871094 -4.941406 2.21875 -4.957031 2.511719 -4.917969 C 2.675781 -4.824219 2.878906 -4.773438 3.0625 -4.546875 C 3.109375 -4.277344 3.109375 -3.75 3.0625 -3.488281 Z M 3.0625 -3.488281 "/></g></g></g><g fill="#000000" fill-opacity="1"><g transform="translate(6.620202, 68.438929)"><g><path d="M 0.078125 -0.09375 C 0.078125 -0.0625 0.101562 -0.0390625 0.125 -0.0390625 C 0.125 -0.0390625 0.441406 0.0078125 0.945312 0.0078125 C 1.332031 0.0078125 1.746094 -0.0234375 1.746094 -0.0234375 C 1.792969 -0.0234375 1.847656 -0.0703125 1.847656 -0.125 L 1.847656 -1.160156 C 1.847656 -1.199219 1.816406 -1.230469 1.777344 -1.230469 L 1.59375 -1.230469 L 1.695312 -1.785156 C 2.058594 -1.679688 2.484375 -1.738281 2.777344 -1.792969 L 2.878906 -1.230469 C 2.753906 -1.230469 2.683594 -1.238281 2.683594 -1.238281 C 2.652344 -1.238281 2.636719 -1.207031 2.636719 -1.175781 L 2.636719 -0.09375 C 2.636719 -0.0625 2.652344 -0.0390625 2.683594 -0.0390625 C 2.683594 -0.0390625 3 0.0078125 3.496094 0.0078125 C 3.890625 0.0078125 4.300781 -0.0234375 4.300781 -0.0234375 C 4.347656 -0.0234375 4.394531 -0.0703125 4.394531 -0.125 L 4.394531 -1.160156 C 4.394531 -1.199219 4.371094 -1.230469 4.324219 -1.230469 C 4.324219 -1.230469 4.214844 -1.230469 4.039062 -1.222656 L 2.847656 -6.070312 L 2.871094 -6.15625 L 1.601562 -6.15625 L 1.625 -6.070312 L 0.433594 -1.230469 C 0.238281 -1.230469 0.125 -1.238281 0.125 -1.238281 C 0.101562 -1.238281 0.078125 -1.207031 0.078125 -1.175781 Z M 2.242188 -4.648438 L 2.558594 -2.953125 C 2.335938 -2.914062 2.140625 -2.90625 1.917969 -2.953125 Z M 2.242188 -4.648438 "/></g></g></g><g fill="#000000" fill-opacity="1"><g transform="translate(11.17388, 68.438929)"><g><path d="M 4.230469 -0.796875 C 4.230469 -1.128906 4.308594 -1.679688 4.308594 -2.28125 C 4.308594 -2.296875 4.292969 -2.3125 4.277344 -2.3125 L 3.140625 -2.3125 C 3.125 -2.3125 3.109375 -2.296875 3.109375 -2.28125 C 3.109375 -2.179688 3.078125 -1.777344 3.078125 -1.640625 C 3.078125 -1.625 3.109375 -1.578125 3.109375 -1.578125 C 3.109375 -1.578125 2.582031 -1.214844 2.234375 -1.214844 C 1.886719 -1.214844 1.332031 -1.578125 1.332031 -1.578125 C 1.332031 -1.578125 1.367188 -1.625 1.367188 -1.640625 C 1.300781 -2.171875 1.285156 -4.023438 1.367188 -4.515625 C 1.367188 -4.53125 1.332031 -4.578125 1.332031 -4.578125 C 1.332031 -4.578125 1.886719 -4.941406 2.234375 -4.941406 C 2.582031 -4.941406 3.109375 -4.578125 3.109375 -4.578125 C 3.109375 -4.578125 3.078125 -4.53125 3.078125 -4.515625 C 3.078125 -4.371094 3.109375 -4.015625 3.109375 -3.875 C 3.109375 -3.859375 3.125 -3.84375 3.140625 -3.84375 L 4.277344 -3.84375 C 4.292969 -3.84375 4.300781 -3.859375 4.300781 -3.875 C 4.300781 -4.394531 4.300781 -4.863281 4.230469 -5.128906 C 4.222656 -5.160156 4.269531 -5.25 4.269531 -5.25 C 4.269531 -5.25 2.824219 -6.273438 2.234375 -6.273438 C 1.632812 -6.273438 0.179688 -5.25 0.179688 -5.25 C 0.179688 -5.25 0.246094 -5.167969 0.238281 -5.136719 C 0.03125 -4.316406 0.140625 -1.695312 0.238281 -0.796875 C 0.238281 -0.773438 0.179688 -0.6875 0.179688 -0.6875 C 0.179688 -0.6875 1.664062 0.117188 2.234375 0.117188 C 2.800781 0.117188 4.285156 -0.6875 4.285156 -0.6875 C 4.285156 -0.6875 4.230469 -0.773438 4.230469 -0.796875 Z M 4.230469 -0.796875 "/></g></g></g><g fill="#000000" fill-opacity="1"><g transform="translate(15.640746, 68.438929)"><g><path d="M 2.644531 -6.046875 L 2.644531 -4.964844 C 2.644531 -4.933594 2.667969 -4.910156 2.691406 -4.910156 L 2.914062 -4.910156 L 2.914062 -3.636719 L 1.65625 -3.636719 L 1.65625 -4.917969 L 1.855469 -4.917969 C 1.894531 -4.917969 1.925781 -4.949219 1.925781 -4.988281 L 1.925781 -6.015625 C 1.925781 -6.070312 1.871094 -6.117188 1.824219 -6.117188 C 1.824219 -6.117188 1.414062 -6.148438 1.027344 -6.148438 C 0.519531 -6.148438 0.207031 -6.101562 0.207031 -6.101562 C 0.179688 -6.101562 0.15625 -6.078125 0.15625 -6.046875 L 0.15625 -4.964844 C 0.15625 -4.933594 0.179688 -4.910156 0.207031 -4.910156 L 0.425781 -4.910156 L 0.425781 -3.1875 C 0.425781 -3.09375 0.355469 -3.046875 0.355469 -3.046875 C 0.355469 -3.046875 0.425781 -2.992188 0.425781 -2.898438 L 0.425781 -1.222656 C 0.285156 -1.222656 0.207031 -1.230469 0.207031 -1.230469 C 0.179688 -1.230469 0.15625 -1.199219 0.15625 -1.167969 L 0.15625 -0.09375 C 0.15625 -0.0546875 0.179688 -0.03125 0.207031 -0.03125 C 0.207031 -0.03125 0.519531 0.0078125 1.027344 0.0078125 C 1.414062 0.0078125 1.824219 -0.015625 1.824219 -0.015625 C 1.871094 -0.015625 1.925781 -0.0703125 1.925781 -0.117188 L 1.925781 -1.152344 C 1.925781 -1.191406 1.894531 -1.222656 1.855469 -1.222656 L 1.65625 -1.222656 L 1.65625 -2.414062 L 2.914062 -2.414062 L 2.914062 -1.222656 C 2.769531 -1.222656 2.691406 -1.230469 2.691406 -1.230469 C 2.667969 -1.230469 2.644531 -1.199219 2.644531 -1.167969 L 2.644531 -0.09375 C 2.644531 -0.0546875 2.667969 -0.03125 2.691406 -0.03125 C 2.691406 -0.03125 3.015625 0.0078125 3.511719 0.0078125 C 3.898438 0.0078125 4.308594 -0.015625 4.308594 -0.015625 C 4.363281 -0.015625 4.410156 -0.0703125 4.410156 -0.117188 L 4.410156 -1.152344 C 4.410156 -1.191406 4.378906 -1.222656 4.339844 -1.222656 L 4.144531 -1.222656 L 4.144531 -2.898438 C 4.144531 -2.992188 4.214844 -3.046875 4.214844 -3.046875 C 4.214844 -3.046875 4.144531 -3.09375 4.144531 -3.1875 L 4.144531 -4.917969 L 4.339844 -4.917969 C 4.378906 -4.917969 4.410156 -4.949219 4.410156 -4.988281 L 4.410156 -6.015625 C 4.410156 -6.070312 4.363281 -6.117188 4.308594 -6.117188 C 4.308594 -6.117188 3.898438 -6.148438 3.511719 -6.148438 C 3.015625 -6.148438 2.691406 -6.101562 2.691406 -6.101562 C 2.667969 -6.101562 2.644531 -6.078125 2.644531 -6.046875 Z M 2.644531 -6.046875 "/></g></g></g><g fill="#000000" fill-opacity="1"><g transform="translate(20.210208, 68.438929)"><g><path d="M 1.207031 -0.0546875 C 1.207031 -0.0234375 1.230469 0 1.253906 0 C 1.253906 0 1.578125 0.046875 2.074219 0.046875 C 2.460938 0.046875 2.871094 0.015625 2.871094 0.015625 C 2.929688 0.015625 2.976562 -0.03125 2.976562 -0.0859375 L 2.976562 -1.113281 C 2.976562 -1.152344 2.945312 -1.183594 2.90625 -1.183594 L 2.707031 -1.183594 L 2.707031 -1.855469 C 2.707031 -1.941406 2.777344 -1.996094 2.777344 -1.996094 C 2.777344 -1.996094 2.707031 -2.042969 2.707031 -2.148438 L 2.707031 -2.808594 L 3.820312 -4.917969 L 3.96875 -4.917969 C 4.007812 -4.917969 4.03125 -4.949219 4.03125 -4.988281 L 4.03125 -6.015625 C 4.03125 -6.070312 3.992188 -6.117188 3.945312 -6.117188 C 3.945312 -6.117188 3.566406 -6.148438 3.210938 -6.148438 C 2.753906 -6.148438 2.460938 -6.101562 2.460938 -6.101562 C 2.4375 -6.101562 2.421875 -6.078125 2.421875 -6.046875 L 2.421875 -4.964844 C 2.421875 -4.933594 2.4375 -4.910156 2.460938 -4.910156 L 2.566406 -4.910156 L 2.089844 -4 L 1.625 -4.917969 L 1.703125 -4.917969 C 1.746094 -4.917969 1.769531 -4.949219 1.769531 -4.988281 L 1.769531 -6.015625 C 1.769531 -6.070312 1.726562 -6.117188 1.679688 -6.117188 C 1.679688 -6.117188 1.300781 -6.148438 0.945312 -6.148438 C 0.488281 -6.148438 0.199219 -6.101562 0.199219 -6.101562 C 0.171875 -6.101562 0.15625 -6.078125 0.15625 -6.046875 L 0.15625 -4.964844 C 0.15625 -4.933594 0.171875 -4.910156 0.199219 -4.910156 L 0.378906 -4.910156 L 1.476562 -2.808594 L 1.476562 -2.148438 C 1.476562 -2.042969 1.40625 -1.996094 1.40625 -1.996094 C 1.40625 -1.996094 1.476562 -1.941406 1.476562 -1.855469 L 1.476562 -1.183594 C 1.332031 -1.191406 1.253906 -1.191406 1.253906 -1.191406 C 1.230469 -1.191406 1.207031 -1.167969 1.207031 -1.136719 Z M 1.207031 -0.0546875 "/></g></g></g><g fill="#000000" fill-opacity="1"><g transform="translate(24.400853, 68.438929)"><g><path d="M 0.207031 -0.046875 C 0.207031 -0.015625 0.230469 0.0078125 0.253906 0.0078125 C 0.253906 0.0078125 0.566406 0.0546875 1.074219 0.0546875 C 1.460938 0.0546875 1.871094 0.0234375 1.871094 0.0234375 C 1.925781 0.0234375 1.972656 -0.0234375 1.972656 -0.078125 L 1.972656 -1.105469 C 1.972656 -1.152344 1.941406 -1.183594 1.902344 -1.183594 C 1.902344 -1.183594 1.816406 -1.175781 1.679688 -1.175781 L 1.679688 -1.878906 L 1.902344 -1.871094 C 2.375 -1.871094 2.839844 -1.886719 3.148438 -1.925781 C 3.558594 -2.035156 3.929688 -2.289062 4.253906 -2.605469 C 4.253906 -2.644531 4.261719 -2.683594 4.261719 -2.722656 C 4.347656 -3.582031 4.324219 -4.609375 4.253906 -5.265625 C 3.921875 -5.589844 3.449219 -5.925781 3.148438 -6.09375 C 2.855469 -6.140625 2.265625 -6.148438 1.6875 -6.148438 L 0.230469 -6.09375 C 0.1875 -6.09375 0.15625 -6.0625 0.15625 -6.023438 L 0.15625 -5.003906 C 0.15625 -4.964844 0.1875 -4.941406 0.230469 -4.941406 L 0.480469 -4.949219 C 0.480469 -4.71875 0.480469 -3.90625 0.488281 -3.179688 C 0.480469 -3.09375 0.410156 -3.046875 0.410156 -3.046875 C 0.410156 -3.046875 0.488281 -2.992188 0.488281 -2.90625 C 0.488281 -2.5 0.488281 -2.15625 0.496094 -2.003906 L 0.496094 -1.183594 L 0.253906 -1.183594 C 0.230469 -1.183594 0.207031 -1.160156 0.207031 -1.128906 Z M 3.0625 -3.488281 C 2.976562 -3.339844 2.777344 -3.21875 2.535156 -3.109375 C 2.328125 -3.078125 1.824219 -3.0625 1.65625 -3.125 C 1.65625 -3.140625 1.703125 -3.164062 1.695312 -3.195312 C 1.679688 -3.589844 1.679688 -4.5 1.695312 -4.832031 C 1.703125 -4.855469 1.664062 -4.863281 1.664062 -4.894531 C 1.871094 -4.941406 2.21875 -4.957031 2.511719 -4.917969 C 2.675781 -4.824219 2.878906 -4.773438 3.0625 -4.546875 C 3.109375 -4.277344 3.109375 -3.75 3.0625 -3.488281 Z M 3.0625 -3.488281 "/></g></g></g><g fill="#000000" fill-opacity="1"><g transform="translate(28.875611, 68.438929)"><g><path d="M 3.953125 -1.792969 L 2.929688 -1.792969 C 2.878906 -1.792969 2.855469 -1.761719 2.855469 -1.71875 C 2.855469 -1.71875 2.863281 -1.507812 2.863281 -1.214844 L 2.855469 -1.214844 C 2.4375 -1.214844 2.097656 -1.222656 1.886719 -1.238281 C 1.878906 -1.246094 1.863281 -1.246094 1.855469 -1.246094 L 1.785156 -1.246094 C 1.71875 -1.246094 1.671875 -1.253906 1.65625 -1.253906 L 1.65625 -2.414062 L 2.769531 -2.414062 C 2.824219 -2.414062 2.871094 -2.460938 2.871094 -2.519531 L 2.871094 -2.890625 C 2.871094 -2.976562 2.945312 -3.03125 2.945312 -3.03125 C 2.945312 -3.03125 2.871094 -3.078125 2.871094 -3.179688 L 2.871094 -3.542969 C 2.871094 -3.597656 2.824219 -3.644531 2.769531 -3.644531 L 1.65625 -3.644531 L 1.65625 -4.871094 C 1.71875 -4.878906 2.195312 -4.917969 2.855469 -4.910156 L 2.863281 -4.910156 C 2.863281 -4.617188 2.855469 -4.402344 2.855469 -4.402344 C 2.855469 -4.363281 2.878906 -4.332031 2.929688 -4.332031 L 3.953125 -4.332031 C 4.007812 -4.332031 4.058594 -4.386719 4.058594 -4.4375 C 4.058594 -4.4375 4.089844 -4.847656 4.089844 -5.234375 C 4.089844 -5.738281 4.039062 -6.054688 4.039062 -6.054688 C 4.039062 -6.078125 4.023438 -6.09375 4 -6.101562 C 3.496094 -6.140625 2.832031 -6.148438 2.1875 -6.148438 L 2.089844 -6.148438 C 1.585938 -6.148438 0.207031 -6.101562 0.207031 -6.101562 C 0.179688 -6.101562 0.15625 -6.078125 0.15625 -6.046875 L 0.15625 -4.964844 C 0.15625 -4.933594 0.179688 -4.910156 0.207031 -4.910156 C 0.207031 -4.910156 0.285156 -4.910156 0.425781 -4.917969 L 0.425781 -3.179688 C 0.425781 -3.078125 0.355469 -3.03125 0.355469 -3.03125 C 0.355469 -3.03125 0.425781 -2.976562 0.425781 -2.890625 L 0.425781 -1.238281 L 0.207031 -1.253906 C 0.179688 -1.253906 0.15625 -1.222656 0.15625 -1.191406 L 0.15625 -0.117188 C 0.15625 -0.0859375 0.179688 -0.0546875 0.207031 -0.0546875 C 0.207031 -0.0546875 0.378906 -0.03125 0.679688 -0.0234375 C 1.585938 0.03125 3.070312 0.0390625 4 -0.0234375 C 4.023438 -0.03125 4.039062 -0.046875 4.039062 -0.0703125 C 4.039062 -0.0703125 4.089844 -0.378906 4.089844 -0.875 C 4.089844 -1.269531 4.058594 -1.6875 4.058594 -1.6875 C 4.058594 -1.746094 4.007812 -1.792969 3.953125 -1.792969 Z M 3.953125 -1.792969 "/></g></g></g><g fill="#000000" fill-opacity="1"><g transform="translate(33.121503, 68.438929)"><g><path d="M 4.632812 -4.933594 C 4.664062 -4.933594 4.695312 -4.957031 4.695312 -5.003906 L 4.695312 -6.03125 C 4.695312 -6.085938 4.65625 -6.132812 4.609375 -6.132812 C 4.609375 -6.132812 4.261719 -6.164062 3.929688 -6.164062 C 3.503906 -6.164062 3.234375 -6.117188 3.234375 -6.117188 C 3.210938 -6.117188 3.195312 -6.09375 3.195312 -6.0625 L 3.195312 -2.746094 L 1.640625 -6.0625 C 1.625 -6.09375 1.59375 -6.117188 1.554688 -6.117188 C 1.554688 -6.117188 1.253906 -6.148438 0.867188 -6.148438 C 0.363281 -6.148438 0.207031 -6.109375 0.207031 -6.109375 C 0.179688 -6.109375 0.15625 -6.078125 0.15625 -6.046875 L 0.15625 -4.972656 C 0.15625 -4.933594 0.179688 -4.910156 0.207031 -4.910156 C 0.207031 -4.910156 0.285156 -4.917969 0.425781 -4.917969 L 0.425781 -3.125 C 0.425781 -3.023438 0.355469 -2.976562 0.355469 -2.976562 C 0.355469 -2.976562 0.425781 -2.921875 0.425781 -2.832031 L 0.425781 -1.222656 L 0.207031 -1.222656 C 0.179688 -1.222656 0.15625 -1.199219 0.15625 -1.167969 L 0.15625 -0.0859375 C 0.15625 -0.0546875 0.179688 -0.03125 0.207031 -0.03125 C 0.207031 -0.03125 0.519531 0.015625 1.027344 0.015625 C 1.414062 0.015625 1.824219 -0.015625 1.824219 -0.015625 C 1.878906 -0.015625 1.925781 -0.0625 1.925781 -0.117188 L 1.925781 -1.144531 C 1.925781 -1.191406 1.894531 -1.214844 1.855469 -1.222656 C 1.855469 -1.222656 1.777344 -1.214844 1.65625 -1.214844 L 1.65625 -3.054688 L 3.109375 -0.0234375 C 3.109375 -0.0234375 3.503906 0 3.867188 0 C 4.253906 0 4.484375 -0.0234375 4.484375 -0.0234375 C 4.53125 -0.0234375 4.6875 -0.0625 4.6875 -0.125 L 4.6875 -1.160156 C 4.6875 -1.199219 4.664062 -1.230469 4.617188 -1.230469 C 4.617188 -1.230469 4.546875 -1.230469 4.425781 -1.222656 L 4.425781 -2.824219 C 4.425781 -2.929688 4.5 -2.976562 4.5 -2.976562 C 4.5 -2.976562 4.425781 -3.03125 4.425781 -3.117188 L 4.425781 -4.933594 Z M 4.632812 -4.933594 "/></g></g></g><g fill="#000000" fill-opacity="1"><g transform="translate(37.975074, 68.438929)"><g><path d="M 4.230469 -0.796875 C 4.230469 -1.128906 4.308594 -1.679688 4.308594 -2.28125 C 4.308594 -2.296875 4.292969 -2.3125 4.277344 -2.3125 L 3.140625 -2.3125 C 3.125 -2.3125 3.109375 -2.296875 3.109375 -2.28125 C 3.109375 -2.179688 3.078125 -1.777344 3.078125 -1.640625 C 3.078125 -1.625 3.109375 -1.578125 3.109375 -1.578125 C 3.109375 -1.578125 2.582031 -1.214844 2.234375 -1.214844 C 1.886719 -1.214844 1.332031 -1.578125 1.332031 -1.578125 C 1.332031 -1.578125 1.367188 -1.625 1.367188 -1.640625 C 1.300781 -2.171875 1.285156 -4.023438 1.367188 -4.515625 C 1.367188 -4.53125 1.332031 -4.578125 1.332031 -4.578125 C 1.332031 -4.578125 1.886719 -4.941406 2.234375 -4.941406 C 2.582031 -4.941406 3.109375 -4.578125 3.109375 -4.578125 C 3.109375 -4.578125 3.078125 -4.53125 3.078125 -4.515625 C 3.078125 -4.371094 3.109375 -4.015625 3.109375 -3.875 C 3.109375 -3.859375 3.125 -3.84375 3.140625 -3.84375 L 4.277344 -3.84375 C 4.292969 -3.84375 4.300781 -3.859375 4.300781 -3.875 C 4.300781 -4.394531 4.300781 -4.863281 4.230469 -5.128906 C 4.222656 -5.160156 4.269531 -5.25 4.269531 -5.25 C 4.269531 -5.25 2.824219 -6.273438 2.234375 -6.273438 C 1.632812 -6.273438 0.179688 -5.25 0.179688 -5.25 C 0.179688 -5.25 0.246094 -5.167969 0.238281 -5.136719 C 0.03125 -4.316406 0.140625 -1.695312 0.238281 -0.796875 C 0.238281 -0.773438 0.179688 -0.6875 0.179688 -0.6875 C 0.179688 -0.6875 1.664062 0.117188 2.234375 0.117188 C 2.800781 0.117188 4.285156 -0.6875 4.285156 -0.6875 C 4.285156 -0.6875 4.230469 -0.773438 4.230469 -0.796875 Z M 4.230469 -0.796875 "/></g></g></g><g fill="#000000" fill-opacity="1"><g transform="translate(42.44194, 68.438929)"><g><path d="M 1.65625 -3.1875 L 1.65625 -4.917969 L 1.855469 -4.917969 C 1.894531 -4.917969 1.925781 -4.949219 1.925781 -4.988281 L 1.925781 -6.015625 C 1.925781 -6.070312 1.878906 -6.117188 1.824219 -6.117188 C 1.824219 -6.117188 1.414062 -6.148438 1.027344 -6.148438 C 0.527344 -6.148438 0.207031 -6.109375 0.207031 -6.109375 C 0.179688 -6.109375 0.15625 -6.078125 0.15625 -6.046875 L 0.15625 -4.972656 C 0.15625 -4.933594 0.179688 -4.910156 0.207031 -4.910156 C 0.207031 -4.910156 0.285156 -4.910156 0.425781 -4.917969 L 0.425781 -3.1875 C 0.425781 -3.09375 0.355469 -3.046875 0.355469 -3.046875 C 0.355469 -3.046875 0.425781 -2.992188 0.425781 -2.898438 L 0.425781 -1.222656 C 0.285156 -1.222656 0.207031 -1.230469 0.207031 -1.230469 C 0.179688 -1.230469 0.15625 -1.199219 0.15625 -1.167969 L 0.15625 -0.09375 C 0.15625 -0.0546875 0.179688 -0.03125 0.207031 -0.03125 C 0.207031 -0.03125 0.519531 0.0078125 1.027344 0.0078125 C 1.414062 0.0078125 1.824219 -0.015625 1.824219 -0.015625 C 1.871094 -0.015625 1.925781 -0.0703125 1.925781 -0.117188 L 1.925781 -1.152344 C 1.925781 -1.191406 1.894531 -1.222656 1.855469 -1.222656 L 1.65625 -1.222656 L 1.65625 -2.898438 C 1.65625 -2.992188 1.726562 -3.046875 1.726562 -3.046875 C 1.726562 -3.046875 1.65625 -3.09375 1.65625 -3.1875 Z M 1.65625 -3.1875 "/></g></g></g><g fill="#000000" fill-opacity="1"><g transform="translate(44.525424, 68.438929)"><g><path d="M 4.058594 -1.6875 C 4.058594 -1.746094 4.007812 -1.792969 3.953125 -1.792969 L 2.929688 -1.792969 C 2.878906 -1.792969 2.855469 -1.761719 2.855469 -1.71875 C 2.855469 -1.71875 2.855469 -1.515625 2.863281 -1.222656 C 2.863281 -1.214844 2.863281 -1.214844 2.855469 -1.214844 C 2.195312 -1.214844 1.71875 -1.246094 1.65625 -1.253906 L 1.65625 -2.898438 C 1.65625 -2.992188 1.726562 -3.046875 1.726562 -3.046875 C 1.726562 -3.046875 1.65625 -3.09375 1.65625 -3.195312 L 1.65625 -4.917969 L 1.855469 -4.917969 C 1.894531 -4.917969 1.925781 -4.949219 1.925781 -4.988281 L 1.925781 -6.015625 C 1.925781 -6.070312 1.871094 -6.117188 1.824219 -6.117188 C 1.824219 -6.117188 1.414062 -6.148438 1.027344 -6.148438 C 0.519531 -6.148438 0.207031 -6.101562 0.207031 -6.101562 C 0.179688 -6.101562 0.15625 -6.078125 0.15625 -6.046875 L 0.15625 -4.964844 C 0.15625 -4.933594 0.179688 -4.910156 0.207031 -4.910156 L 0.425781 -4.910156 L 0.425781 -3.1875 C 0.425781 -3.09375 0.355469 -3.046875 0.355469 -3.046875 C 0.355469 -3.046875 0.425781 -2.992188 0.425781 -2.898438 L 0.425781 -0.214844 C 0.425781 -0.109375 0.503906 -0.03125 0.601562 -0.03125 C 1.5 0.03125 3.039062 0.0390625 4 -0.0234375 L 4 -0.03125 C 4.023438 -0.0390625 4.039062 -0.0546875 4.039062 -0.0703125 C 4.039062 -0.0703125 4.089844 -0.394531 4.089844 -0.890625 C 4.089844 -1.277344 4.058594 -1.6875 4.058594 -1.6875 Z M 4.058594 -1.6875 "/></g></g></g></svg>