<svg xmlns="http://www.w3.org/2000/svg" xmlns:xlink="http://www.w3.org/1999/xlink" width="40" zoomAndPan="magnify" viewBox="0 0 30 30.000001" height="40" preserveAspectRatio="xMidYMid meet" version="1.0"><defs><clipPath id="2f42bc7d5a"><path d="M 23 0 L 29.515625 0 L 29.515625 6 L 23 6 Z M 23 0 " clip-rule="nonzero"/></clipPath><clipPath id="bb36b1c5d0"><path d="M 0.484375 23 L 7 23 L 7 29.03125 L 0.484375 29.03125 Z M 0.484375 23 " clip-rule="nonzero"/></clipPath></defs><path fill="#000000" d="M 23.027344 2.925781 L 3.417969 22.539062 L 6.980469 26.101562 L 26.59375 6.492188 Z M 19.292969 10.734375 L 11.222656 18.800781 C 11.152344 18.871094 11.070312 18.90625 10.96875 18.90625 C 10.871094 18.90625 10.785156 18.871094 10.714844 18.800781 C 10.648438 18.730469 10.613281 18.644531 10.613281 18.546875 C 10.613281 18.449219 10.648438 18.363281 10.714844 18.292969 L 18.785156 10.226562 C 18.855469 10.15625 18.941406 10.121094 19.039062 10.121094 C 19.140625 10.121094 19.222656 10.15625 19.292969 10.226562 C 19.363281 10.296875 19.398438 10.382812 19.398438 10.480469 C 19.398438 10.582031 19.363281 10.664062 19.292969 10.734375 Z M 19.292969 10.734375 " fill-opacity="1" fill-rule="nonzero"/><g clip-path="url(#2f42bc7d5a)"><path fill="#000000" d="M 29.003906 4.078125 L 27.097656 5.984375 L 23.535156 2.421875 L 25.441406 0.515625 C 25.5625 0.390625 25.707031 0.296875 25.867188 0.230469 C 26.027344 0.164062 26.199219 0.128906 26.371094 0.128906 C 26.546875 0.128906 26.714844 0.164062 26.875 0.230469 C 27.039062 0.296875 27.179688 0.390625 27.304688 0.515625 L 29.003906 2.214844 C 29.128906 2.339844 29.222656 2.480469 29.289062 2.644531 C 29.355469 2.804688 29.390625 2.972656 29.390625 3.148438 C 29.390625 3.320312 29.355469 3.488281 29.289062 3.652344 C 29.222656 3.8125 29.128906 3.957031 29.003906 4.078125 Z M 29.003906 4.078125 " fill-opacity="1" fill-rule="nonzero"/></g><g clip-path="url(#bb36b1c5d0)"><path fill="#000000" d="M 6.355469 26.488281 L 0.484375 29.035156 L 3.03125 23.164062 Z M 6.355469 26.488281 " fill-opacity="1" fill-rule="nonzero"/></g></svg>